<?xml version="1.0" encoding="UTF-8" standalone="no"?>
<svg width="250px" height="61px" viewBox="0 0 250 61" version="1.1" xmlns="http://www.w3.org/2000/svg" xmlns:xlink="http://www.w3.org/1999/xlink">
    <!-- Generator: Sketch 46.2 (44496) - http://www.bohemiancoding.com/sketch -->
    <title>ico_logosao</title>
    <desc>Created with Sketch.</desc>
    <defs></defs>
    <g id="trang-chu" stroke="none" stroke-width="1" fill="none" fill-rule="evenodd">
        <g id="saostar-pc-home" transform="translate(-835.000000, -59.000000)" fill-rule="nonzero">
            <g id="ico_logosao" transform="translate(835.000000, 59.000000)">
                <g id="XMLID_2589_" transform="translate(52.000000, 20.000000)" fill="#EC2227">
                    <path d="M36.3,12.2 L24.5,12.2 C24.5,11 24.1,10.2 23.3,9.7 C22.4,9.2 21.4,9 20.1,9 C17.5,9 16,9.7 15.8,11.2 C15.6,12.6 17.1,13.8 20.3,14.7 C25.6,16.2 28.8,17.2 29.7,17.7 C33.2,19.4 34.9,21.9 34.9,25.2 C34.9,25.8 34.8,26.5 34.7,27.2 C34,31.5 31.7,34.7 28,37.1 C24.5,39.2 20.1,40.3 14.7,40.3 C10.2,40.3 6.6,39.2 3.8,37 C1.3,34.8 0,32.2 0,29 C0,28.5 0,28 0.1,27.5 L12,27.5 C12,28.8 12.5,29.8 13.5,30.5 C14.4,31.2 15.6,31.5 16.9,31.5 C20.3,31.5 22.2,30.6 22.5,28.7 C22.7,27.3 21.2,26.2 18,25.3 C12.8,23.9 9.7,22.9 8.6,22.3 C5.2,20.6 3.4,18 3.4,14.5 C3.4,13.8 3.5,13.1 3.6,12.3 C4.3,8.4 6.4,5.4 9.9,3.2 C13.2,1.2 17.3,0.1 22.2,0.1 C27.2,0.1 30.9,1.3 33.3,3.6 C35.4,5.8 36.5,8.6 36.3,12.2 Z" id="XMLID_2596_"></path>
                    <path d="M43.2,39.1 L31,39.1 L51.3,1.1 L64,1.1 L70.9,39.1 L58.5,39.1 L57.9,34.1 L45.5,34.1 L43.2,39.1 Z M57.1,26.2 L55.5,12.6 L49.2,26.2 L57.1,26.2 Z" id="XMLID_2593_"></path>
                    <path d="M94.1,0.2 C99.7,0.2 103.9,1.8 106.9,4.9 C109.6,7.7 110.9,11.4 110.9,16 C110.9,17.3 110.8,18.6 110.5,20 C109.4,26.3 106.6,31.3 102.1,34.9 C97.8,38.4 92.8,40.2 87,40.2 C81.8,40.2 77.7,38.8 74.7,36.1 C71.7,33.4 70.2,29.6 70.2,24.7 C70.2,23.2 70.4,21.6 70.7,19.9 C71.7,14 74.4,9.2 78.7,5.6 C83,2 88.2,0.2 94.1,0.2 Z M92.3,9.4 C89.7,9.4 87.6,10.6 85.9,12.9 C84.5,14.8 83.6,17.1 83.1,19.9 C82.9,21.2 82.8,22.4 82.8,23.5 C82.8,28.4 84.8,30.8 88.7,30.8 C93.7,30.8 96.8,27.2 98.1,19.9 C98.3,18.8 98.4,17.8 98.4,16.8 C98.4,11.9 96.4,9.4 92.3,9.4 Z" id="XMLID_2590_"></path>
                </g>
                <g id="XMLID_2579_" transform="translate(164.000000, 20.000000)" fill="#818285">
                    <path d="M21.4,18.2 C21.4,13.9 18.9,11.8 14.9,11.8 C12.4,11.8 8.9,12.8 8.9,16.1 C8.9,18.5 11.4,19.4 13.2,20.3 L19,22.8 C21.8,24 24.1,26.4 24.1,29.7 C24.1,36.9 18.3,39.7 12.3,39.7 C4.6,39.7 0.2,36.4 0.2,28.2 L5,28.2 C5,33.3 6.7,35.5 12.8,35.5 C16.1,35.5 19.2,33.9 19.2,30.9 C19.2,28.6 17.8,27.7 16.1,26.9 L10.7,24.5 C7,22.8 4.1,21 4.1,16.3 C4.1,13.2 6.9,7.6 14.7,7.6 C22,7.6 26.2,10.9 26.2,18.2 L21.4,18.2 L21.4,18.2 Z" id="XMLID_2587_"></path>
                    <path d="M30.6,12.8 L26.4,12.8 L27.3,8.6 L31.5,8.6 L33.5,0.5 L38.3,0.5 L36.5,8.6 L42,8.6 L41.3,12.8 L35.6,12.8 L32,30.2 C31.7,31.8 31.5,32.6 31.5,33.1 C31.5,34.4 32.4,34.9 33.8,34.9 C34.9,34.9 36,34.8 36.9,34.6 L36,38.7 C35.1,38.9 34,39.1 32.6,39.1 C28.8,39.1 26.3,37.6 26.3,34.2 C26.3,33.7 26.4,32.9 26.5,32.3 L30.6,12.8 Z" id="XMLID_2585_"></path>
                    <path d="M61.4,30.8 C61.1,32.1 60.9,33 60.9,33.5 C60.9,34.5 61.7,35.3 63,35.3 C63.4,35.3 63.8,35.2 64.2,35.2 L63.4,38.9 C62.5,39 61.5,39.1 60.6,39.1 C57,39.1 56.2,36.8 56,35.3 L55.9,35.3 C55.5,36.4 52.4,39.6 46.6,39.6 C39.7,39.6 37.1,34.8 37.1,30.8 C37.1,24 41.8,21.2 47.5,20.8 L54.5,20.3 C58.5,20 59.3,18.4 59.3,15.9 C59.3,12.8 57,11.7 52.8,11.7 C48.6,11.7 45.9,13.5 45.5,17.2 L40.5,17.2 C41.5,10.3 47.1,7.6 53.5,7.6 C58.3,7.6 64.5,8.8 64.5,14.8 C64.5,16.4 64.2,17.9 63.5,20.6 L61.4,30.8 Z M57.9,23.6 C56.3,24.3 53.1,24.5 49.2,24.8 C44.9,25.2 42.3,27.4 42.3,30.7 C42.3,34 44.7,35.5 47.6,35.5 C54.1,35.5 56.8,30.7 57.9,23.6 Z" id="XMLID_2582_"></path>
                    <path d="M71.7,8.6 L76.4,8.6 L75.1,14.7 C75.1,14.8 77.1,12 77.5,11.6 C78.7,10.2 81.1,8.1 84.4,8.1 L85.8,8.2 L84.8,13.7 C84.3,13.7 83.7,13.6 83.1,13.6 C77.3,13.6 74.1,20 73.5,23.5 L70.2,38.7 L65.2,38.7 L71.7,8.6 Z" id="XMLID_2580_"></path>
                </g>
                <g id="XMLID_2561_" fill="#EB2729">
                    <polyline id="XMLID_2599_" points="5 19.4 15.4 26.2 15.6 26.2 15.6 26.2 31 26.2 31 25.2 31 25.2 31 24.6 39.7 29.6 31 34.7 31 33.9 31 33.9 31 33 31 33 31 33 24.7 33 24.7 33 11.6 33 11.6 33.9 24.2 33.9 12.9 55.8 34.5 38.7 47.2 47.2 45.1 30.4 59.3 19.3 43.8 19.3 41.5 0 31.6 19.3"></polyline>
                    <rect id="XMLID_2577_" x="20.7" y="31" width="10.3" height="1"></rect>
                    <rect id="XMLID_2576_" x="3.8" y="25.2" width="1.3" height="1"></rect>
                    <rect id="XMLID_2575_" x="9.1" y="25.2" width="1.3" height="1"></rect>
                    <rect id="XMLID_2574_" x="11.8" y="25.2" width="1.3" height="1"></rect>
                    <rect id="XMLID_2573_" x="6.7" y="27.1" width="1.9" height="1"></rect>
                    <rect id="XMLID_2572_" x="10.1" y="27.1" width="1.3" height="1"></rect>
                    <rect id="XMLID_2571_" x="12.9" y="27.1" width="18.1" height="1"></rect>
                    <rect id="XMLID_2570_" x="0" y="29.1" width="1.3" height="1"></rect>
                    <rect id="XMLID_2569_" x="2.8" y="29.1" width="2.3" height="1"></rect>
                    <rect id="XMLID_2568_" x="6.7" y="29.1" width="24.3" height="1"></rect>
                    <rect id="XMLID_2567_" x="16.2" y="31" width="1.3" height="1"></rect>
                    <rect id="XMLID_2566_" x="13.4" y="31" width="1.3" height="1"></rect>
                    <rect id="XMLID_2565_" x="10.1" y="31" width="1.3" height="1"></rect>
                    <rect id="XMLID_2564_" x="8.7" y="33" width="1.3" height="1"></rect>
                    <rect id="XMLID_2563_" x="4.9" y="33" width="1.3" height="1"></rect>
                    <rect id="XMLID_2562_" x="2.6" y="33" width="1.3" height="1"></rect>
                </g>
            </g>
        </g>
    </g>
</svg>